<?xml version="1.0" standalone="no"?>
<!DOCTYPE svg PUBLIC "-//W3C//DTD SVG 20010904//EN"
 "http://www.w3.org/TR/2001/REC-SVG-20010904/DTD/svg10.dtd">
<svg version="1.0" xmlns="http://www.w3.org/2000/svg"
 width="2880.000000pt" height="2036.000000pt" viewBox="0 0 2880.000000 2036.000000"
 preserveAspectRatio="xMidYMid meet">

<g transform="translate(0.000000,2036.000000) scale(0.100000,-0.100000)"
fill="#000000" stroke="none">
<path d="M10155 17245 c-157 -30 -271 -91 -386 -205 -69 -68 -94 -102 -127
-170 -66 -135 -72 -171 -79 -472 l-6 -266 54 -6 c30 -3 430 -8 889 -11 459 -3
1580 -12 2490 -19 910 -8 2087 -18 2616 -22 l961 -7 6 228 c8 312 -7 413 -81
545 -67 118 -188 233 -309 294 -64 32 -176 63 -251 71 -32 3 -624 10 -1317 15
-693 6 -1730 14 -2305 20 -2184 20 -2080 20 -2155 5z"/>
<path d="M10600 15687 c-70 -25 -100 -116 -64 -193 30 -62 41 -64 359 -64 328
0 332 1 360 74 31 80 -9 170 -78 180 -18 3 -147 7 -287 10 -187 4 -264 2 -290
-7z"/>
<path d="M11461 15673 c-95 -48 -94 -191 2 -236 45 -22 193 -23 242 -3 90 38
101 177 18 232 -41 27 -214 32 -262 7z"/>
<path d="M14865 15486 c-48 -21 -68 -51 -72 -109 -5 -62 9 -93 56 -124 33 -23
39 -23 322 -23 l287 0 31 26 c63 52 64 155 2 207 -27 22 -39 24 -196 30 -257
10 -396 8 -430 -7z"/>
<path d="M15733 15475 c-96 -42 -97 -192 -1 -235 57 -26 194 -28 245 -3 97 46
96 198 -2 239 -45 18 -199 18 -242 -1z"/>
<path d="M10690 14841 c0 -229 1 -249 18 -253 9 -2 103 -1 207 2 l190 6 -202
2 -203 2 0 234 0 234 32 4 c18 3 772 5 1675 4 904 -1 1643 2 1643 6 0 4 -756
8 -1680 8 l-1680 0 0 -249z"/>
<path d="M14060 15082 c0 -4 342 -8 761 -9 418 -1 762 -3 764 -5 5 -5 7 -87 6
-285 l-1 -183 -1195 0 c-657 0 -1195 -3 -1195 -7 0 -5 541 -7 1202 -6 l1203 2
3 250 2 250 -775 1 c-426 0 -775 -3 -775 -8z"/>
<path d="M10885 14991 c-29 -13 -52 -42 -59 -76 -18 -83 75 -162 145 -124 17
9 27 3 68 -40 63 -68 75 -65 16 3 l-46 54 19 33 c17 31 19 44 12 67 -1 4 -3
12 -4 17 0 6 -11 23 -22 38 -24 30 -91 44 -129 28z m80 -15 c90 -38 67 -176
-30 -176 -50 0 -95 44 -95 93 0 40 30 84 63 90 12 2 23 5 25 6 1 0 18 -5 37
-13z"/>
<path d="M11500 14810 c0 -6 638 -10 1745 -10 1121 0 1745 4 1745 10 0 6 -624
10 -1745 10 -1106 0 -1745 -4 -1745 -10z"/>
<path d="M11153 14593 c26 -2 67 -2 90 0 23 2 2 3 -48 3 -49 0 -68 -1 -42 -3z"/>
<path d="M11318 14593 c18 -2 45 -2 60 0 15 2 0 4 -33 4 -33 0 -45 -2 -27 -4z"/>
<path d="M11598 14593 c105 -2 279 -2 385 0 105 1 19 2 -193 2 -212 0 -298 -1
-192 -2z"/>
<path d="M12207 14593 c18 -2 50 -2 70 0 21 2 7 4 -32 4 -38 0 -55 -2 -38 -4z"/>
<path d="M12322 14595 c3 -3 157 -5 343 -5 186 0 340 2 343 5 3 3 -151 5 -343
5 -192 0 -346 -2 -343 -5z"/>
<path d="M13063 14593 c26 -2 67 -2 90 0 23 2 2 3 -48 3 -49 0 -68 -1 -42 -3z"/>
<path d="M7050 13204 c-129 -19 -240 -64 -345 -139 -85 -61 -124 -108 -189
-234 -83 -159 -119 -190 -289 -251 -139 -51 -196 -117 -197 -230 0 -30 7 -112
17 -182 14 -108 15 -135 4 -185 -14 -62 -45 -99 -170 -202 -90 -75 -97 -120
-40 -255 61 -143 53 -180 -74 -349 -87 -115 -126 -181 -115 -192 3 -3 35 15
73 40 192 129 554 249 819 272 76 6 77 6 121 55 56 62 101 170 122 296 16 95
16 103 -3 213 l-19 114 -57 6 c-33 4 -68 15 -86 27 -32 23 -62 86 -62 128 0
39 29 92 64 118 55 41 69 41 113 -4 34 -33 47 -40 80 -40 57 0 73 22 73 100 0
121 67 187 244 241 56 16 115 35 131 41 74 28 145 89 165 142 l11 29 44 -43
c24 -23 55 -69 69 -100 30 -67 62 -212 70 -320 4 -41 13 -127 22 -190 22 -156
16 -219 -22 -267 -40 -50 -108 -83 -199 -96 l-75 -11 6 -36 c4 -19 28 -102 55
-185 81 -254 61 -224 175 -271 130 -54 218 -98 279 -142 l49 -35 43 23 c102
54 172 143 199 252 21 85 8 152 -47 240 -98 155 -105 207 -49 368 39 113 43
187 14 242 -10 21 -67 86 -125 145 -58 60 -115 124 -125 143 -19 37 -23 105
-14 310 4 111 -11 154 -68 198 -33 25 -43 27 -129 27 l-93 0 -25 36 c-48 72
-164 129 -299 148 -77 11 -98 12 -146 5z"/>
<path d="M7233 12484 c-19 -8 -16 -41 5 -46 31 -8 67 7 67 27 0 15 -8 20 -30
22 -16 1 -36 0 -42 -3z"/>
<path d="M7484 12478 c-10 -15 32 -48 62 -48 31 0 39 17 18 41 -19 21 -69 26
-80 7z"/>
<path d="M7516 12335 c-9 -24 4 -65 21 -65 10 0 13 10 11 37 -3 39 -21 55 -32
28z"/>
<path d="M7248 12312 c-7 -24 9 -65 22 -57 16 10 12 75 -4 75 -7 0 -16 -8 -18
-18z"/>
<path d="M6680 12200 c0 -5 9 -10 19 -10 24 0 81 -47 81 -66 0 -8 5 -14 10
-14 27 0 -6 67 -41 86 -32 16 -69 19 -69 4z"/>
<path d="M7335 12110 c-10 -16 42 -43 70 -36 14 4 23 11 20 16 -3 5 -12 7 -20
3 -9 -3 -26 2 -40 11 -14 9 -26 12 -30 6z"/>
<path d="M8972 11770 c-18 -11 -36 -30 -41 -43 -4 -12 -18 -112 -29 -222 -55
-514 -83 -787 -88 -865 -6 -83 -6 -86 21 -110 26 -24 30 -25 207 -28 99 -2
184 0 188 5 4 4 -30 95 -76 201 -112 261 -136 339 -106 349 7 3 53 -35 102
-83 50 -48 90 -84 90 -79 0 4 -21 49 -47 100 l-47 92 -48 -5 c-44 -4 -53 -1
-79 24 -60 57 -29 166 56 194 19 6 44 8 55 5 20 -6 21 -4 15 29 -5 22 -3 36 3
36 14 0 87 -83 169 -190 37 -49 69 -87 71 -86 2 2 -13 37 -34 77 -41 83 -75
175 -67 183 18 18 125 -71 189 -156 l42 -58 6 38 c8 48 56 511 56 535 0 10
-13 32 -29 48 l-29 29 -259 0 c-240 0 -260 -1 -291 -20z"/>
<path d="M9207 11166 c-5 -13 37 -75 76 -111 10 -10 -34 72 -58 108 -11 15
-13 16 -18 3z"/>
<path d="M19433 10908 c-76 -20 -202 -168 -345 -406 -45 -75 -108 -172 -140
-215 -130 -176 -168 -275 -167 -430 1 -105 34 -287 54 -294 39 -12 339 577
557 1097 38 91 74 170 79 175 11 11 6 -1 -91 -230 -169 -399 -347 -763 -464
-952 -31 -50 -56 -97 -56 -103 0 -9 14 -11 49 -8 66 6 132 56 217 161 202 252
437 754 460 987 7 59 -20 156 -52 191 -23 26 -64 37 -101 27z"/>
<path d="M6490 10773 c0 -11 82 -116 135 -172 60 -64 151 -137 220 -178 57
-34 175 -83 199 -83 36 0 12 17 -62 43 -143 50 -305 175 -417 322 -52 67 -75
88 -75 68z"/>
<path d="M8112 10588 c3 -7 25 -75 48 -152 46 -146 58 -155 59 -45 1 69 -22
140 -59 179 -28 30 -56 41 -48 18z"/>
<path d="M5980 10582 c0 -4 21 -18 48 -32 26 -13 72 -49 102 -80 91 -92 140
-206 156 -362 4 -38 11 -68 17 -68 16 0 -2 145 -29 230 -27 87 -85 181 -141
231 -71 62 -153 106 -153 81z"/>
<path d="M7630 10575 c0 -4 62 -149 137 -323 l138 -317 0 -120 c0 -118 -1
-121 -34 -183 -39 -71 -123 -154 -199 -195 -26 -14 -257 -107 -513 -205 -255
-99 -582 -225 -725 -281 -144 -55 -267 -101 -273 -101 -7 0 -9 9 -6 23 2 12 9
65 15 117 5 52 26 235 45 405 54 469 54 470 49 474 -12 13 -20 -32 -45 -252
-15 -133 -42 -365 -59 -515 -17 -151 -30 -277 -28 -282 2 -4 176 59 388 141
212 82 660 255 995 385 336 129 614 239 618 244 26 24 -25 10 -168 -46 -216
-86 -208 -85 -147 -20 98 104 139 242 109 372 -17 77 -269 676 -286 682 -6 2
-11 1 -11 -3z"/>
<path d="M20435 10473 c-78 -17 -218 -98 -341 -197 -78 -63 -343 -329 -426
-428 l-40 -48 34 -1 c66 -1 165 -58 277 -159 l44 -40 50 68 c85 115 270 400
377 577 56 93 104 172 107 175 51 44 -330 -566 -479 -767 -21 -29 -38 -56 -38
-62 0 -9 370 -385 374 -379 30 42 47 73 65 118 13 30 25 57 27 59 2 2 29 -20
60 -48 85 -78 170 -132 216 -139 40 -5 40 -5 28 19 -47 87 -237 327 -338 427
-41 39 -69 72 -63 72 33 0 320 -339 396 -468 19 -31 35 -42 35 -23 0 15 -68
169 -112 255 -24 44 -69 113 -101 154 l-58 73 30 132 c43 192 54 281 50 415
-4 109 -6 122 -31 160 -20 29 -38 44 -65 51 -40 11 -45 12 -78 4z"/>
<path d="M17633 10240 c-136 -29 -162 -110 -61 -190 61 -47 235 -74 445 -68
112 3 145 7 177 23 22 11 41 25 43 31 7 21 -369 99 -552 114 l-100 9 115 -4
c116 -4 315 -37 458 -76 70 -19 97 -19 76 0 -19 17 -234 110 -315 136 -92 29
-217 40 -286 25z"/>
<path d="M14309 10210 c-67 -35 -92 -93 -75 -169 22 -93 66 -130 161 -132 45
-1 62 3 94 25 43 30 57 57 66 127 5 36 2 55 -14 87 -38 74 -152 104 -232 62z"/>
<path d="M1620 10109 c-356 -40 -683 -236 -962 -579 -149 -182 -333 -511 -441
-790 -51 -130 -147 -423 -147 -447 0 -14 54 -15 542 -9 623 7 1193 13 2070 22
541 6 617 8 623 22 5 13 -71 14 -732 7 -1436 -15 -2448 -21 -2456 -15 -4 4 15
75 43 158 132 402 290 720 490 990 84 113 263 292 366 365 171 121 386 212
563 237 123 18 384 8 486 -19 292 -78 496 -203 693 -426 88 -99 198 -197 330
-293 107 -77 351 -199 492 -246 196 -65 485 -116 648 -116 77 1 77 1 39 14
-20 8 -72 17 -115 20 -470 41 -862 193 -1177 458 -49 42 -147 136 -216 210
-187 198 -347 303 -576 377 -177 58 -386 80 -563 60z"/>
<path d="M3987 10046 c-71 -20 -101 -46 -105 -90 -3 -32 2 -43 35 -75 26 -26
57 -44 93 -55 143 -42 477 -49 555 -10 22 10 40 24 40 29 0 26 -418 107 -562
109 -51 0 -93 5 -93 10 0 27 348 -18 574 -75 43 -11 81 -18 83 -15 15 14 -223
123 -340 156 -94 27 -218 34 -280 16z"/>
<path d="M8703 9940 c-78 -65 -97 -86 -67 -76 135 43 127 37 140 89 7 26 9 47
5 47 -3 0 -38 -27 -78 -60z"/>
<path d="M8850 9777 c-58 -56 -116 -107 -130 -114 -14 -6 -52 -23 -84 -38 -65
-29 -65 -40 0 -56 77 -18 168 8 330 93 100 53 124 80 124 142 0 36 -18 42 -51
17 -36 -27 -43 -26 -35 3 3 14 3 32 0 40 -14 36 -50 15 -154 -87z"/>
<path d="M16520 9418 c0 -244 -2 -513 -4 -598 -8 -253 -8 -809 -1 -820 4 -7
41 -11 93 -10 48 1 92 1 97 1 6 -1 10 -106 10 -293 l0 -293 185 -3 c102 -2
375 0 608 3 l422 7 0 294 0 294 225 0 225 0 0 930 0 930 -355 0 -355 0 -10
-26 c-45 -117 -174 -330 -287 -472 -47 -59 -59 -69 -65 -55 -4 10 -19 131 -33
268 -14 138 -28 258 -31 268 -5 16 -31 17 -365 17 l-359 0 0 -442z m1390
-1702 l0 -285 -57 -3 c-32 -2 -132 0 -223 3 -91 4 -324 7 -517 8 l-353 1 0
273 c0 151 2 276 4 278 3 2 261 5 575 7 l571 2 0 -284z"/>
<path d="M19459 9661 c-120 -96 -130 -116 -150 -281 -14 -118 -25 -146 -94
-230 -62 -76 -108 -167 -103 -207 2 -22 10 -29 48 -39 25 -6 66 -20 92 -30
l46 -18 39 29 c50 39 284 267 334 326 l38 45 -67 90 c-37 49 -77 111 -90 137
-30 61 -38 139 -19 200 8 26 14 47 13 47 0 0 -40 -31 -87 -69z"/>
<path d="M8172 9589 c3 -8 47 -135 98 -284 90 -261 104 -295 115 -283 9 8
-192 572 -205 576 -8 3 -11 -1 -8 -9z"/>
<path d="M7040 9433 c-119 -59 -270 -68 -423 -25 -88 25 -98 9 -10 -18 169
-52 392 -29 497 52 36 28 1 23 -64 -9z"/>
<path d="M19605 9123 c-60 -64 -148 -150 -195 -191 -47 -41 -84 -77 -82 -81 1
-3 39 -26 85 -50 45 -24 90 -50 99 -58 16 -14 22 -14 63 1 49 19 295 143 309
156 19 18 -137 342 -164 340 -3 -1 -54 -53 -115 -117z"/>
<path d="M9115 9219 c-179 -12 -361 -66 -517 -153 -51 -29 -169 -95 -263 -147
-149 -84 -237 -132 -550 -299 -100 -54 -571 -289 -690 -345 -796 -375 -1315
-539 -1549 -490 -38 8 -72 13 -74 10 -3 -3 3 -44 12 -92 67 -341 297 -534 706
-594 96 -14 1117 -18 1370 -6 258 13 484 27 526 32 47 7 57 -5 49 -58 -2 -18
-9 -108 -15 -202 -5 -93 -19 -305 -31 -470 -11 -165 -26 -401 -34 -525 -8
-124 -21 -328 -29 -455 -8 -126 -17 -277 -20 -335 -3 -58 -10 -168 -16 -245
-5 -77 -14 -216 -20 -310 -5 -93 -18 -272 -27 -397 l-17 -228 -630 -2 c-591
-3 -631 -4 -634 -20 -3 -17 34 -18 630 -20 l633 -3 0 -69 0 -69 65 -26 c52
-22 153 -53 276 -86 9 -3 9 -22 -1 -73 -47 -248 -86 -484 -82 -495 4 -10 35
-16 104 -20 88 -6 732 -54 1433 -107 146 -11 271 -20 278 -20 21 0 -10 49 -64
102 -56 55 -130 97 -236 132 l-78 26 -58 -19 c-249 -84 -500 19 -624 254 -38
75 -71 172 -62 186 14 24 32 3 48 -53 26 -93 73 -175 141 -244 66 -68 115 -97
202 -119 68 -18 192 -18 248 -1 38 12 39 13 15 20 -133 43 -211 86 -155 86 8
0 40 10 72 22 61 22 123 74 123 102 0 26 -46 66 -75 66 l-25 0 20 40 c26 50
26 94 0 120 -33 33 -68 26 -114 -24 -41 -44 -134 -191 -143 -227 -8 -28 -22
-20 -59 34 -39 56 -74 146 -74 187 0 27 3 30 30 30 30 0 295 61 340 78 20 8
30 24 44 68 55 175 106 458 130 729 27 293 47 714 41 860 l-5 140 20 -70 c30
-100 98 -270 119 -297 10 -13 29 -43 41 -68 59 -116 200 -325 276 -410 17 -19
42 -48 55 -63 l24 -28 100 17 c55 9 109 17 119 18 18 1 26 -30 85 -321 41
-200 70 -323 78 -323 8 0 1355 418 1711 531 28 9 31 13 20 27 -23 27 -127 70
-201 82 -38 7 -107 10 -153 8 -73 -4 -87 -8 -119 -34 -102 -81 -179 -117 -293
-134 -191 -30 -399 80 -529 279 -23 36 -40 68 -37 73 12 20 34 4 67 -49 68
-111 189 -211 300 -250 37 -13 79 -18 142 -17 102 1 175 23 259 77 l51 32
-114 5 c-108 5 -113 6 -87 20 16 8 52 41 82 73 43 47 54 65 54 92 0 43 -35 70
-80 61 l-30 -5 0 55 c0 45 -4 59 -25 79 -27 28 -33 29 -70 15 -17 -6 -33 -26
-45 -53 -21 -47 -50 -197 -50 -258 0 -22 -4 -39 -8 -39 -17 0 -101 60 -139
100 -48 49 -99 138 -87 150 5 5 47 25 94 45 80 34 251 114 258 120 7 7 -20
177 -48 298 -213 924 -428 1674 -649 2265 -91 241 -142 361 -241 561 -260 525
-399 698 -695 869 -258 148 -525 210 -820 191z m2480 -4360 l-1 -76 -49 -56
c-48 -55 -50 -56 -53 -30 -5 38 37 210 55 229 8 8 23 14 32 12 13 -3 16 -17
16 -79z m118 -83 c10 -26 -66 -114 -130 -150 -17 -10 35 115 60 142 23 25 62
29 70 8z m-170 -125 c-6 -22 -43 -60 -43 -44 0 10 38 63 45 63 2 0 1 -9 -2
-19z m-2075 -1083 c2 -17 -8 -48 -24 -77 -23 -40 -39 -54 -91 -80 -35 -17 -66
-31 -69 -31 -17 0 99 178 135 208 24 19 46 10 49 -20z m59 -165 c9 -23 -39
-59 -115 -84 -35 -12 -65 -19 -68 -17 -2 3 23 30 55 61 46 44 66 57 91 57 19
0 33 -6 37 -17z m-210 -68 c-25 -22 -57 -33 -57 -20 0 5 71 44 80 44 3 0 -8
-11 -23 -24z"/>
<path d="M21974 9060 c-50 -11 -154 -40 -230 -65 -77 -24 -189 -56 -249 -70
-234 -55 -338 -104 -427 -204 -68 -76 -173 -260 -157 -275 7 -8 149 37 309 96
233 87 627 261 904 400 54 27 100 47 103 44 3 -3 -66 -39 -153 -81 -412 -199
-770 -351 -999 -425 -189 -61 -174 -52 -143 -83 73 -73 280 -58 577 43 310
105 619 265 718 373 77 84 96 199 40 241 -40 30 -170 32 -293 6z"/>
<path d="M5460 8244 c0 -88 58 -187 131 -224 41 -21 159 -29 159 -10 0 6 -25
10 -55 10 -106 0 -182 66 -206 178 -14 66 -29 90 -29 46z"/>
<path d="M22065 8149 c-60 -4 -173 -16 -250 -25 -94 -12 -201 -17 -327 -15
-158 2 -192 -1 -220 -15 -43 -21 -118 -82 -118 -95 0 -7 76 -9 210 -7 l210 3
0 -157 c0 -150 1 -158 20 -158 53 0 496 106 728 173 45 14 82 21 82 17 0 -14
-494 -143 -710 -185 -47 -9 -93 -19 -102 -21 -17 -5 -18 -26 -18 -249 l0 -243
83 -7 c110 -9 220 9 305 50 37 18 123 76 192 130 172 134 239 179 244 163 3
-7 7 -44 11 -83 16 -185 81 -391 186 -600 42 -82 115 -225 161 -317 141 -277
182 -436 181 -703 0 -173 -16 -311 -63 -543 -37 -178 -54 -338 -45 -419 4 -35
5 -63 3 -63 -2 0 -66 -9 -143 -20 -188 -26 -458 -40 -755 -39 -175 1 -284 -4
-380 -16 -507 -63 -886 -246 -1136 -549 -72 -88 -162 -241 -149 -254 3 -4
1096 -10 2428 -13 1332 -4 3143 -10 4025 -13 l1602 -6 0 34 c0 85 -77 476
-136 691 -265 964 -802 1652 -1459 1870 -141 47 -239 65 -390 72 -456 20 -896
-171 -1330 -577 -195 -183 -282 -260 -292 -260 -5 0 -41 37 -80 83 -93 111
-221 224 -411 364 -308 228 -475 435 -556 693 -15 47 -30 122 -33 168 -5 68
-9 82 -22 80 -22 -4 -31 -61 -32 -208 -3 -276 59 -447 287 -793 206 -311 254
-438 254 -667 0 -139 -6 -157 -59 -191 -58 -37 -390 -203 -396 -198 -2 2 7 49
21 104 80 331 28 669 -152 987 -115 205 -260 375 -529 623 -233 214 -399 458
-484 708 -49 142 -53 124 49 211 206 175 263 307 169 393 -81 73 -389 116
-674 92z m663 -174 c-9 -10 -271 -95 -276 -90 -6 5 -9 4 138 54 108 37 150 48
138 36z m-274 -418 c72 -283 233 -547 479 -785 320 -310 416 -417 520 -578 57
-89 130 -232 161 -321 91 -251 100 -537 25 -790 -55 -184 -61 -224 -56 -333 7
-134 25 -198 92 -336 65 -134 147 -246 277 -380 l99 -102 -203 -4 c-225 -5
-248 -1 -306 55 -71 68 -112 167 -143 347 -16 93 -23 209 -34 596 -18 595 -34
784 -85 977 -53 200 -93 277 -350 662 -160 241 -214 315 -225 311 -20 -7 -6
-33 80 -156 208 -295 372 -560 415 -673 93 -242 114 -438 140 -1302 6 -198 15
-356 25 -415 27 -164 75 -287 142 -360 l35 -40 -62 0 c-57 0 -67 4 -133 48
-87 58 -227 194 -289 282 -136 193 -198 395 -198 646 0 115 6 162 39 336 67
343 83 548 60 743 -23 197 -74 342 -216 615 -198 380 -249 503 -287 695 -23
117 -46 378 -31 363 3 -2 16 -48 29 -101z m1243 -884 c100 -199 263 -379 493
-543 420 -300 638 -593 680 -912 16 -121 1 -228 -56 -394 -52 -154 -61 -211
-44 -296 35 -180 159 -358 364 -522 47 -38 85 -71 83 -72 -1 -1 -97 -4 -212
-5 l-211 -3 -45 26 c-84 49 -135 142 -168 305 -16 76 -23 171 -31 423 -19 598
-47 773 -152 971 -43 80 -200 283 -387 498 -91 104 -117 129 -128 120 -11 -9
1 -27 60 -93 181 -201 373 -443 423 -531 100 -179 136 -399 149 -905 13 -496
45 -650 158 -767 l41 -43 -59 0 c-53 0 -70 6 -143 47 -206 116 -366 295 -431
482 -54 156 -52 296 8 537 51 207 65 325 58 483 -9 211 -51 316 -249 619 -65
100 -137 215 -159 256 -76 141 -130 341 -128 475 l1 66 23 -71 c12 -39 40
-107 62 -151z m2832 -188 c416 -80 800 -349 1107 -775 311 -431 538 -1037 640
-1705 7 -49 11 -92 8 -95 -11 -10 -2958 2 -2979 12 -43 22 -172 125 -247 196
-141 135 -226 271 -254 406 -19 88 -12 143 32 261 44 120 63 202 70 310 10
154 -42 346 -136 501 l-42 69 29 23 c15 13 104 94 196 180 193 179 296 264
422 347 235 155 491 254 736 285 100 12 315 4 418 -15z m-2434 -1317 c-4 -24
-24 -106 -43 -183 -34 -129 -37 -151 -37 -285 0 -124 3 -156 23 -220 65 -207
221 -393 438 -520 l69 -40 -211 0 -210 0 -70 60 c-182 157 -342 386 -408 583
-38 112 -44 278 -16 379 11 37 16 40 193 127 100 49 200 101 222 114 22 14 44
26 48 26 5 1 6 -18 2 -41z m-1262 -435 c3 -10 13 -54 22 -98 20 -91 62 -204
107 -285 74 -134 211 -288 336 -377 34 -25 62 -47 62 -51 0 -6 -3040 5 -3047
12 -9 8 57 115 116 189 198 248 507 425 895 511 187 42 354 56 657 56 305 0
532 13 708 40 64 9 121 18 128 19 6 0 14 -7 16 -16z"/>
<path d="M7634 6700 c20 -22 54 -57 77 -79 24 -22 40 -45 37 -55 -1 -9 -246
-259 -543 -556 -296 -297 -536 -542 -532 -546 3 -4 252 239 553 540 301 300
549 546 551 546 2 0 47 -43 100 -96 54 -53 99 -91 101 -84 2 6 -37 52 -87 102
-50 50 -91 94 -91 98 0 4 27 33 59 65 33 32 57 63 54 68 -3 5 -34 -19 -69 -54
-35 -35 -66 -61 -68 -58 -3 2 -39 37 -79 77 -78 76 -125 100 -63 32z"/>
<path d="M12106 6503 c-3 -4 -6 -307 -6 -675 0 -526 3 -670 13 -673 6 -2 849
-11 1872 -19 2098 -18 1952 -22 2110 58 153 78 278 205 341 350 l28 66 483 0
483 0 -2 318 -3 317 -462 3 -463 2 0 109 0 108 -627 6 c-346 4 -1289 12 -2098
17 -808 5 -1513 12 -1566 14 -53 3 -99 2 -103 -1z m5284 -578 l0 -275 -461 0
c-435 0 -461 1 -454 18 5 9 11 127 16 262 4 135 8 251 8 258 1 9 97 12 446 12
l445 0 0 -275z"/>
<path d="M17696 6033 c-12 -422 -12 -418 2 -417 6 1 215 2 462 3 l450 1 -2
308 -3 307 -452 3 -452 3 -5 -208z m882 182 c9 -3 12 -71 12 -290 l0 -285 -42
0 c-399 -2 -824 2 -830 8 -5 5 -7 134 -6 288 l3 279 110 5 c130 6 734 2 753
-5z"/>
<path d="M11655 4239 c-385 -120 -781 -244 -879 -276 -120 -37 -181 -52 -184
-45 -3 9 -83 12 -293 12 -282 0 -289 0 -289 -20 0 -20 7 -20 294 -20 l294 0 9
-47 c5 -27 13 -47 19 -46 5 1 75 22 157 47 l147 46 4570 0 c4563 0 4570 0
4570 20 0 20 -7 20 -4497 21 -4382 0 -4497 1 -4446 19 28 10 330 105 670 211
340 105 621 195 625 198 12 10 -35 96 -52 98 -8 1 -330 -97 -715 -218z"/>
<path d="M6310 3890 c0 -19 7 -20 115 -20 108 0 115 1 115 20 0 19 -7 20 -115
20 -108 0 -115 -1 -115 -20z"/>
<path d="M8167 2993 c-3 -4 -8 -32 -12 -60 l-7 -53 34 0 c18 0 123 -7 233 -15
517 -39 1014 -76 1265 -95 151 -11 295 -22 319 -25 l43 -5 -4 55 c-3 30 -7 57
-10 60 -3 3 -185 19 -404 35 -220 17 -608 46 -864 65 -256 19 -493 37 -526 40
-34 4 -64 3 -67 -2z"/>
<path d="M13895 1276 c-23 -23 -25 -33 -25 -105 0 -44 -4 -83 -10 -86 -13 -8
-13 -45 0 -45 5 0 11 -44 12 -97 3 -83 6 -98 20 -101 15 -3 18 8 20 95 l3 98
33 3 c24 2 32 8 32 23 0 14 -7 19 -30 19 -36 0 -46 26 -37 101 8 62 12 69 43
69 21 0 25 4 22 23 -5 33 -51 35 -83 3z"/>
<path d="M12410 1070 c0 -196 2 -221 16 -227 10 -4 22 0 28 9 10 14 14 14 31
2 26 -19 95 -17 121 4 33 26 44 55 44 112 0 46 -4 56 -34 86 -27 27 -42 34
-73 34 -21 0 -49 -7 -61 -16 l-22 -15 0 115 0 116 -25 0 -25 0 0 -220z m170
-40 c65 -65 6 -173 -79 -144 -49 18 -59 119 -14 152 25 18 70 15 93 -8z"/>
<path d="M13462 1068 c3 -215 4 -223 23 -223 19 0 20 8 23 223 l2 222 -25 0
-25 0 2 -222z"/>
<path d="M13580 1065 c0 -218 1 -225 20 -225 19 0 20 7 20 225 0 218 -1 225
-20 225 -19 0 -20 -7 -20 -225z"/>
<path d="M15037 1283 c-4 -3 -7 -55 -7 -115 l0 -109 -22 15 c-12 9 -40 16 -61
16 -31 0 -46 -7 -73 -34 -31 -31 -34 -40 -34 -91 0 -51 3 -60 34 -91 27 -27
42 -34 73 -34 21 0 48 7 60 15 19 13 22 13 27 0 3 -8 15 -15 26 -15 20 0 20 6
20 225 0 212 -1 225 -18 225 -10 0 -22 -3 -25 -7z m-37 -243 c31 -16 44 -72
26 -114 -25 -61 -104 -62 -133 -2 -36 77 35 155 107 116z"/>
<path d="M16060 1064 l0 -225 23 3 c22 3 22 3 25 226 l2 222 -25 0 -25 0 0
-226z"/>
<path d="M16917 1283 c-4 -3 -7 -55 -7 -115 l0 -109 -22 15 c-12 9 -40 16 -61
16 -31 0 -46 -7 -74 -35 -34 -34 -35 -37 -31 -97 4 -53 9 -65 36 -89 37 -33
93 -39 129 -14 19 13 22 13 27 0 3 -8 15 -15 26 -15 20 0 20 6 20 225 0 212
-1 225 -18 225 -10 0 -22 -3 -25 -7z m-27 -253 c29 -29 35 -67 17 -106 -18
-36 -50 -50 -93 -40 -30 8 -57 64 -48 100 15 61 84 86 124 46z"/>
<path d="M13156 1051 c-47 -103 -86 -193 -86 -200 0 -6 9 -11 20 -11 14 0 27
15 45 50 l25 50 88 0 87 0 25 -48 c18 -33 32 -48 49 -50 20 -3 23 0 17 15 -23
60 -172 383 -177 383 -3 0 -45 -85 -93 -189z m125 13 c17 -36 28 -68 26 -71
-3 -2 -32 -3 -65 -1 l-60 3 30 68 c17 37 33 67 35 67 2 0 18 -30 34 -66z"/>
<path d="M10790 1035 l0 -195 39 0 c110 0 205 41 238 102 26 51 24 154 -5 200
-35 56 -107 88 -199 88 l-73 0 0 -195z m179 127 c65 -34 89 -121 53 -192 -21
-42 -89 -80 -144 -80 l-38 0 0 151 0 152 47 -7 c26 -3 63 -14 82 -24z"/>
<path d="M11590 1216 c-18 -22 -5 -46 25 -46 23 0 26 4 23 27 -3 32 -29 41
-48 19z"/>
<path d="M11150 1062 c-52 -53 -49 -158 7 -202 39 -30 113 -27 152 6 17 14 31
29 31 34 0 18 -34 19 -57 0 -36 -28 -77 -26 -102 6 -38 48 -30 54 69 54 90 0
90 0 90 26 0 62 -45 103 -113 104 -40 0 -54 -5 -77 -28z m124 -28 c32 -31 20
-44 -42 -44 -32 0 -62 3 -65 7 -4 3 3 17 15 30 25 27 69 30 92 7z"/>
<path d="M11401 1071 c-38 -38 -26 -83 28 -111 52 -26 67 -46 51 -65 -16 -19
-39 -19 -60 0 -14 13 -19 13 -36 0 -19 -14 -18 -15 6 -35 33 -26 94 -26 120 0
25 25 27 81 3 102 -10 9 -33 23 -50 32 -21 10 -33 24 -33 36 0 21 28 28 46 10
6 -6 15 -6 24 0 25 15 -1 45 -43 48 -26 2 -42 -3 -56 -17z"/>
<path d="M11737 1069 c-56 -43 -60 -148 -7 -201 33 -33 95 -38 135 -12 25 16
25 16 25 -14 0 -48 -17 -81 -45 -88 -40 -10 -73 4 -90 37 -10 19 -22 29 -33
27 -26 -6 -16 -49 18 -80 40 -37 116 -40 155 -5 35 30 44 78 45 225 l0 122
-25 0 c-16 0 -25 -6 -25 -16 0 -13 -5 -12 -26 5 -35 27 -93 27 -127 0z m132
-45 c45 -57 12 -144 -54 -144 -24 0 -39 7 -54 26 -45 57 -12 144 54 144 24 0
39 -7 54 -26z"/>
<path d="M12070 1081 c-8 -6 -27 -7 -42 -4 l-28 6 0 -122 c0 -114 1 -121 20
-121 18 0 20 7 20 78 0 94 14 126 56 130 46 5 57 -17 62 -119 4 -76 7 -90 21
-87 13 3 16 20 19 99 2 84 0 99 -18 122 -16 21 -30 27 -58 27 -20 0 -44 -4
-52 -9z"/>
<path d="M14067 1073 c-11 -11 -17 -13 -17 -5 0 7 -9 12 -20 12 -19 0 -20 -7
-20 -121 0 -109 2 -120 18 -117 14 3 18 18 22 91 5 96 22 124 66 113 21 -6 34
9 34 35 0 16 -65 10 -83 -8z"/>
<path d="M14207 1069 c-54 -42 -58 -150 -6 -201 38 -39 113 -40 158 -2 17 14
31 29 31 34 0 18 -34 19 -57 0 -36 -28 -77 -26 -102 6 -38 48 -30 54 69 54 90
0 90 0 90 25 0 34 -25 82 -49 95 -34 18 -106 12 -134 -11z m117 -35 c32 -32
20 -44 -44 -44 -64 0 -73 9 -43 42 20 22 66 24 87 2z"/>
<path d="M14470 1077 c-13 -7 -30 -24 -37 -37 -16 -32 -17 -111 -1 -145 30
-67 157 -74 200 -11 22 31 -18 44 -47 16 -31 -29 -82 -24 -108 12 -11 14 -16
31 -13 37 4 7 42 11 96 11 l88 0 -7 33 c-11 45 -28 75 -51 87 -26 14 -90 12
-120 -3z m110 -47 c30 -30 17 -40 -51 -40 -63 0 -72 9 -42 42 22 24 68 23 93
-2z"/>
<path d="M15160 1052 c-34 -34 -40 -46 -40 -82 0 -79 52 -130 133 -130 114 0
166 141 82 220 -18 17 -40 25 -80 28 -53 4 -56 3 -95 -36z m141 -31 c17 -18
29 -40 29 -56 0 -35 -50 -85 -85 -85 -78 0 -104 131 -32 160 38 15 58 11 88
-19z"/>
<path d="M15546 1035 c-15 -33 -31 -69 -35 -80 -8 -17 -14 -9 -42 53 -29 65
-36 72 -61 72 l-28 0 61 -122 61 -122 13 30 c7 16 23 52 35 79 l22 50 25 -55
c14 -30 29 -66 35 -80 9 -23 14 -17 68 90 33 63 59 118 59 123 1 4 -10 7 -24
7 -22 0 -30 -10 -59 -72 l-33 -73 -17 40 c-9 22 -25 58 -35 80 l-19 40 -26
-60z"/>
<path d="M15866 1083 c-4 -4 -22 -6 -41 -5 l-35 3 0 -121 c0 -120 0 -121 23
-118 21 3 22 9 27 96 5 97 13 112 55 112 42 0 49 -15 55 -112 4 -78 8 -93 23
-96 15 -3 17 7 17 102 0 93 -3 109 -20 126 -20 20 -88 28 -104 13z"/>
<path d="M16194 1057 c-26 -23 -37 -43 -41 -73 -11 -83 44 -144 130 -144 118
0 167 148 76 225 -24 19 -42 25 -80 25 -42 0 -55 -5 -85 -33z m135 -33 c66
-55 15 -157 -70 -139 -72 16 -81 117 -14 153 31 17 51 14 84 -14z"/>
<path d="M16477 1069 c-56 -43 -60 -148 -7 -201 23 -22 37 -28 72 -28 24 0 52
7 62 15 17 13 21 13 31 -2 7 -10 19 -14 29 -10 13 5 16 24 16 122 0 115 0 115
-24 115 -13 0 -26 -5 -28 -12 -3 -8 -11 -7 -28 5 -34 23 -91 22 -123 -4z m132
-45 c45 -57 12 -144 -54 -144 -24 0 -39 7 -54 26 -45 57 -12 144 54 144 24 0
39 -7 54 -26z"/>
<path d="M17224 1080 c-12 -4 -31 -20 -42 -35 -66 -83 -10 -205 93 -205 62 0
75 7 75 42 0 28 -1 29 -22 14 -33 -23 -75 -20 -103 9 -35 34 -33 78 4 116 33
32 65 37 99 13 21 -15 22 -14 22 14 0 18 -6 32 -16 36 -22 8 -85 6 -110 -4z"/>
<path d="M17438 1074 c-54 -29 -74 -113 -43 -174 40 -77 170 -80 219 -6 9 14
16 45 16 71 0 52 -20 90 -61 111 -36 18 -96 17 -131 -2z m123 -53 c17 -18 29
-40 29 -56 0 -34 -50 -85 -84 -85 -41 0 -80 41 -80 85 0 29 7 43 28 61 37 32
71 30 107 -5z"/>
<path d="M17745 1081 c-3 -5 -21 -7 -39 -4 l-34 5 1 -118 c2 -112 3 -119 22
-119 18 0 20 8 25 86 5 93 18 119 56 119 33 0 38 -14 44 -115 5 -82 7 -90 25
-90 18 0 20 8 25 90 6 101 11 115 44 115 37 0 45 -20 48 -116 3 -81 5 -89 23
-89 19 0 20 7 20 101 0 86 -3 105 -19 123 -23 26 -81 28 -107 5 -16 -15 -20
-15 -41 0 -24 17 -83 22 -93 7z"/>
<path d="M11592 963 c3 -110 4 -118 23 -118 19 0 20 8 23 118 l3 117 -26 0
-26 0 3 -117z"/>
<path d="M12670 1074 c0 -4 23 -47 51 -96 l50 -90 -46 -90 -47 -89 29 3 c26 3
36 19 121 186 90 176 92 182 67 182 -21 0 -30 -11 -61 -72 -40 -79 -36 -80
-85 15 -24 46 -34 57 -54 57 -14 0 -25 -3 -25 -6z"/>
<path d="M13690 1010 c0 -18 7 -20 55 -20 48 0 55 2 55 20 0 18 -7 20 -55 20
-48 0 -55 -2 -55 -20z"/>
<path d="M14680 1010 c0 -18 7 -20 55 -20 48 0 55 2 55 20 0 18 -7 20 -55 20
-48 0 -55 -2 -55 -20z"/>
<path d="M9710 1005 c0 -13 43 -15 330 -15 287 0 330 2 330 15 0 13 -43 15
-330 15 -287 0 -330 -2 -330 -15z"/>
<path d="M18430 1005 c0 -13 43 -15 330 -15 287 0 330 2 330 15 0 13 -43 15
-330 15 -287 0 -330 -2 -330 -15z"/>
<path d="M17051 890 c-7 -4 -11 -16 -9 -26 4 -22 37 -31 48 -13 16 25 -14 55
-39 39z"/>
</g>
</svg>
