<?xml version="1.0" encoding="iso-8859-1"?>
<!-- Generator: Adobe Illustrator 21.0.0, SVG Export Plug-In . SVG Version: 6.00 Build 0)  -->
<svg version="1.1" xmlns="http://www.w3.org/2000/svg" xmlns:xlink="http://www.w3.org/1999/xlink" x="0px" y="0px" width="1400px"
	 height="1400px" viewBox="0 0 1400 1400" enable-background="new 0 0 1400 1400" xml:space="preserve">
<g id="Background">
	<linearGradient id="gradient_fill_1_" gradientUnits="userSpaceOnUse" x1="-9.094947e-13" y1="1400" x2="1400" y2="4.547474e-13">
		<stop  offset="0" style="stop-color:#FF00AA"/>
		<stop  offset="1" style="stop-color:#2A00E6"/>
	</linearGradient>
	<rect id="gradient_fill" fill="url(#gradient_fill_1_)" width="1400" height="1400"/>
</g>
<g id="Objects">
	<linearGradient id="cloud_3_" gradientUnits="userSpaceOnUse" x1="618.3968" y1="58.4561" x2="618.3968" y2="373.4314">
		<stop  offset="0" style="stop-color:#FFFFFF"/>
		<stop  offset="1" style="stop-color:#FFFFFF;stop-opacity:0"/>
	</linearGradient>
	<path id="cloud_2_" fill="url(#cloud_3_)" d="M1126.6,331.5h-61.9c0-86.2-69.9-156.2-156.2-156.2c-42.1,0-80.3,16.7-108.4,43.7
		c-13.4-7.4-28.4-12.4-44.2-14.6c-5.9-81.6-74-146-157.1-146c-87,0-157.5,70.5-157.5,157.5c0,8.6,0.7,17.1,2,25.4
		c-17.2,1.1-33.1,6.9-46.4,16.3c-21.4-26.1-53.9-42.8-90.3-42.8c-64.4,0-116.7,52.2-116.7,116.7h-79.8c-11.6,0-21,9.4-21,21
		s9.4,21,21,21h1016.4c11.6,0,21-9.4,21-21S1138.2,331.5,1126.6,331.5z"/>
	<linearGradient id="cloud_4_" gradientUnits="userSpaceOnUse" x1="1031.8328" y1="443.9504" x2="1031.8328" y2="618.9492">
		<stop  offset="0" style="stop-color:#FFFFFF"/>
		<stop  offset="1" style="stop-color:#FFFFFF;stop-opacity:0"/>
	</linearGradient>
	<path id="cloud_1_" fill="url(#cloud_4_)" d="M1296.7,590.9h-61.3c0-45.5-36.9-82.4-82.4-82.4c-28,0-52.8,14-67.7,35.4
		c-8.8-10-20.4-17.6-33.6-21.4c-4.5-44.1-41.8-78.5-87-78.5c-44.6,0-81.4,33.3-86.8,76.4c-34.4,5.1-60.8,34.7-60.8,70.5h-50.2
		c-7.7,0-14,6.3-14,14v0c0,7.7,6.3,14,14,14h529.8c7.7,0,14-6.3,14-14v0C1310.8,597.2,1304.5,590.9,1296.7,590.9z"/>
	<g id="world_map_folded">
		<polygon id="shadow_1_" opacity="0.2" points="1074.5,911.2 884.9,861.7 700,912.3 515.1,861.7 325.5,911.2 46.6,1170.2 
			1353.4,1170.2 		"/>
		<g id="paper_2_">
			<polygon id="paper_1_" fill="#FFFFFF" points="1074.5,751.2 884.9,701.7 700,752.3 515.1,701.7 325.5,751.2 46.6,1170.2 
				387.1,1059.8 700,1170.2 1012.9,1059.8 1353.4,1170.2 			"/>
			<linearGradient id="paper_3_" gradientUnits="userSpaceOnUse" x1="76.0257" y1="935.8359" x2="1323.9742" y2="935.8359">
				<stop  offset="0" style="stop-color:#00B9F2"/>
				<stop  offset="1" style="stop-color:#00346C"/>
			</linearGradient>
			<polygon id="paper" fill="url(#paper_3_)" points="387.3,1048.4 76,1149.3 331.9,760.8 515,712.9 700,763.5 885,712.9 
				1068.1,760.8 1324,1149.3 1012.7,1048.4 700,1158.7 			"/>
		</g>
		<g id="world_map">
			<linearGradient id="SVGID_1_" gradientUnits="userSpaceOnUse" x1="391.5508" y1="831.6531" x2="867.3928" y2="1307.4951">
				<stop  offset="0" style="stop-color:#FCEE21"/>
				<stop  offset="1" style="stop-color:#009245"/>
			</linearGradient>
			<polygon fill="url(#SVGID_1_)" points="561.3,905.4 548.2,905.4 541.6,900.1 537.4,900.1 534.6,901.6 536.3,896.7 529.2,891.1 
				523,891.1 513.5,883.6 510.4,883.6 507,885.2 498.5,885.2 497.2,884.1 483.9,884.1 478.2,886.7 467.3,886.7 463.8,883.6 
				467,877.7 464.8,875.9 457.5,875.9 461.2,869.2 457.3,869.2 449.3,872.7 441.4,872.7 439.3,866.1 443.3,859.7 450.3,856.8 
				462.2,856.8 465.1,855.5 476.6,855.5 478.1,856.7 475.9,860.8 478.6,863 481,863 484.7,860 484.5,855.4 485.7,853.2 498.6,847.6 
				500.3,844.3 507.1,841.4 508.5,838.6 515.5,838.6 516.7,835.9 522.2,835.9 529.9,832.6 536.8,832.6 537.3,831.3 533.8,831.3 
				529.5,831.3 530.5,829.2 523.3,829.2 529,826.8 544.2,826.8 551.2,823.8 552,821.6 550.2,820.5 550.8,818.9 547.1,818.9 
				543.3,816.5 544.3,814 540.8,811.8 537.9,811.8 531.6,814.4 528.8,812.7 530.2,809.5 524.9,809.5 523.3,808.5 513.9,808.5 
				511.1,814 512.4,814.8 509.9,819.8 506.4,819.8 504.3,823.8 500.3,823.8 497.2,821.6 499.1,818.2 490,818.2 485,814.7 
				481.8,814.7 483,812.7 479.6,812.7 481.9,808.8 489,806.2 492.9,806.2 503.7,802.1 508,802.1 512.1,800.5 513.7,797.5 
				511.9,796.3 506.3,796.3 504.9,798.9 501.8,798.9 493.6,793.5 495.2,790.8 497,790.8 502.1,788.9 492,788.9 489.4,793.1 
				487.3,793.1 486.1,795 489.6,798.2 480.2,798.2 479.4,799.4 471.9,799.4 468.9,797.3 463.2,797.3 459.6,799.2 450.7,799.2 
				436.3,795.3 426.3,795.3 413,797 403.4,797 382.5,793.1 367.6,793.1 355.9,796.9 350.1,796.9 352.6,799.9 346.3,802.2 
				349.7,805.6 340.8,807.7 339.5,811.5 343.5,811.5 343.7,815.3 333.7,818.4 332.6,819.5 344.6,817.9 363.8,812.8 367.8,812.8 
				374.5,811 386,812.3 390.4,814.8 397.3,814.8 401.6,824.9 408,827.1 403.7,832.6 396.4,839.7 397.4,849 402.3,850.3 406.6,866 
				411.8,865.6 409.7,854.9 412.6,854.9 415.6,862.5 418.7,865.4 418.5,871 435.2,876.4 442.2,876.4 445.3,879.9 454.2,881.2 
				455.1,884.4 462.3,888.3 470.8,888.3 473,891 470.3,896.1 461.6,900.5 454.6,909.3 459.9,928.2 470.6,934.6 450.9,968.5 
				440.9,976.8 431.4,993.1 434.3,994.2 422,1004.6 414.7,1019.3 423.1,1035.2 440.5,1035.2 434.3,1023.8 438.3,1015.1 448,1009.6 
				450.1,1004.7 460.1,994.9 462.4,989.8 471.2,987.3 473.1,982.6 479.9,982.6 489.3,979 492.4,970.9 502,970.9 522.5,955.5 
				524.3,950.3 541.9,945.1 550.6,940 559.8,922.9 571.6,916.4 573.5,909.2 566.3,909.2 			"/>
			<linearGradient id="SVGID_2_" gradientUnits="userSpaceOnUse" x1="605.1215" y1="617.9559" x2="1094.3848" y2="1107.2191">
				<stop  offset="0" style="stop-color:#FCEE21"/>
				<stop  offset="1" style="stop-color:#009245"/>
			</linearGradient>
			<polygon fill="url(#SVGID_2_)" points="1018.4,796.2 980.3,796.2 973.5,794 959.2,794 952.5,791.7 915.7,791.7 908.1,789.1 
				873,789.1 872.1,787.6 876.8,784.7 875.7,782.8 851.5,782.8 848.1,784.8 838.5,784.8 832.7,788.2 821.8,788.2 823,791.2 
				809.4,791.2 812,798.2 809.3,797.2 806.9,790.6 795.4,790.6 797.8,798 791.5,795.4 774.2,795.4 767.9,798.8 757.9,798.8 
				744.9,805.6 739.6,805.6 731.8,802.1 744,802.1 747.7,800.2 747.2,797.2 741.3,797.2 737.1,795.3 724,795.3 705.8,795.3 
				685.7,805 678.3,808.6 678.2,814 685.1,814 688.7,812.2 693.6,814.7 693.6,818 699.4,818 702.6,816.4 702.5,812.9 705.2,812.9 
				705.1,810.5 703.2,810.5 703.1,807.9 713.2,802.9 716.7,802.9 716.8,804 711.1,806.9 711.3,810.4 714,811.6 723.8,811.6 
				723.9,812.8 717.6,812.8 717.8,815.3 711.8,815.3 712,818.6 708.6,820.4 691.3,820.4 688.9,819.2 688.9,816.6 684.6,816.6 
				684.6,821.1 679.3,821.1 664.3,828.6 658.7,828.6 658.5,830.9 662.7,830.9 665.2,832.3 665,835.6 652.3,835.6 649,837.3 
				648.2,844.7 650.2,845.8 653.4,845.8 661.5,845.8 667.5,842.7 667.7,840.3 670.7,840.3 674.3,838.4 674.4,836.5 678.4,836.5 
				679.8,837.3 684.4,834.8 686.5,834.8 696.2,840 697.9,840 700.9,841.5 700.9,843.5 704.2,843.5 704.2,841.6 706.3,841.6 
				706.3,840.4 696.3,835.2 698.2,834.2 708.1,839.4 708.2,840.8 716.5,845.1 719.1,843.7 713.9,841 715.3,840.3 728.9,840.3 
				729,841.6 724.6,841.6 724.8,844.2 730.7,847.2 745.5,847.2 746.1,851.4 741.9,853.9 726.4,853.9 722.8,852 712,852 709.9,853.2 
				710,855.4 706.3,855.4 702.7,853.5 699.1,853.5 696,851.8 691.5,851.8 691.5,845.6 670.8,845.6 663.2,848.5 653.1,848.5 
				644.4,853 644,856.3 639.6,858.6 636.5,858.6 627.4,866.6 625.1,881.9 640.1,893.8 646.6,893.8 648.9,892.7 664.1,892.7 
				668.9,890.7 676.2,890.7 678.5,894.1 686.4,894.1 686.3,904 698,920.5 694.3,931.2 701.5,941.7 701.8,952.8 716.4,971.5 
				723,971.5 725.9,968.3 738.8,968.3 751.8,957 750.9,949.9 758.4,946.1 757,936.9 770.7,928.5 769,918.7 763.1,911.9 766.6,905.2 
				779.9,897.4 788.3,886.2 787.6,883.5 770.8,884.7 762.8,877.7 757.3,877.7 751,867.3 747.9,865.8 739.7,857.1 743.8,858.6 
				746.5,858.6 756.1,866.4 758,870.3 766.9,875.6 772.9,881 777.8,880.8 795,875 796.4,873.4 803.8,867.2 800.7,864.8 797.5,864.8 
				794.8,862.5 791.9,862.5 788.9,864.5 784.4,864.5 774.2,855.8 777.5,855.2 779.9,855.9 788.1,860.4 792.3,860.4 795.2,859.6 
				798.7,862.1 808.4,863.3 818.1,862.2 829.5,868.8 835.3,868.7 835.6,871.5 852,888.8 855.8,888.8 858.1,883.9 857,876.9 
				869,870.4 867.9,867.9 877.8,866.6 890.4,877.3 894.7,874.9 902.3,881.9 905.9,888.8 916.8,897 925.5,899.6 925.9,897.8 
				919.3,892.3 909.8,889 906,885.3 905.9,881.3 910.1,881.3 918.5,887.1 923.3,887.6 928,881.7 925.4,877 914.2,872.3 914.7,869.1 
				919.4,868.1 925.3,868.1 936.6,865.6 941.1,855.2 932,848.7 932.4,846.3 924.9,843.4 929,839.8 938.9,842.2 945.6,848.5 
				952,848.6 951.3,845.9 944.2,841.9 950.9,837.2 954.8,837.2 962.8,828.3 958.1,822.1 954.7,820.9 949,820.9 947.3,818.6 
				955.4,812.1 980.4,812.1 978.7,810.1 980.6,808.5 991.1,808.5 993.2,810.9 985.1,818 991,825 996.4,825 1002.4,819.5 
				997.3,813.7 1000.5,810.9 1010,810.9 1013.4,807.7 1026.2,807.7 1022.9,804.4 1035.6,804.4 1031.6,800.5 			"/>
			<linearGradient id="SVGID_3_" gradientUnits="userSpaceOnUse" x1="544.1642" y1="689.7194" x2="1015.4395" y2="1160.9946">
				<stop  offset="0" style="stop-color:#FCEE21"/>
				<stop  offset="1" style="stop-color:#009245"/>
			</linearGradient>
			<polygon fill="url(#SVGID_3_)" points="789,924.4 789.5,926.8 784.4,930.7 780.8,930.7 782.3,938.3 779.8,940.2 780.5,943.6 
				782.1,944.6 782.8,947.8 785.6,949.5 790.1,949.5 792.8,947.3 792.2,944.3 794.1,942.8 793.4,939.5 796,937.4 795,933.2 
				797.9,930.9 795.8,921.9 791.7,921.9 			"/>
			<linearGradient id="SVGID_4_" gradientUnits="userSpaceOnUse" x1="656.1168" y1="571.1717" x2="1136.6495" y2="1051.7043">
				<stop  offset="0" style="stop-color:#FCEE21"/>
				<stop  offset="1" style="stop-color:#009245"/>
			</linearGradient>
			<polygon fill="url(#SVGID_4_)" points="1078.2,942.1 1066.1,936.8 1059.4,936.8 1054.3,930.4 1049.8,928.5 1048.3,926.6 
				1043.6,924.5 1040.5,920.6 1037.2,920.6 1036,922.2 1042.2,930.2 1040.7,932.3 1037,932.3 1035.9,930.7 1031.8,930.7 1025.7,928 
				1021.3,922.1 1009.8,922.1 1004.5,928.4 1002.9,926 996.9,926 991,932.9 993.7,937.2 982.2,937.2 975.6,944.8 980.2,952.5 
				986,955.3 989.5,961 993.6,963 997.1,968.9 1002.4,971.5 1007.6,971.5 1009.4,969.1 1018.8,969.1 1022.3,964.4 1027.5,964.4 
				1028.7,962.7 1042.6,962.7 1048.3,965.3 1049.8,967.5 1051.9,967.5 1054.3,970.8 1057.4,970.8 1059.6,967.5 1062.5,971.5 
				1065.7,971.5 1072.1,974.5 1071,976.2 1076.4,978.7 1079.9,978.7 1085.4,981.3 1095.7,981.3 1097.2,978.8 1105,978.8 
				1099.1,971.5 1101.9,966.7 1097.4,961.3 1099.1,958.4 1092,949.9 1080.4,944.7 			"/>
			<linearGradient id="SVGID_5_" gradientUnits="userSpaceOnUse" x1="520.7197" y1="705.9979" x2="1006.0793" y2="1191.3575">
				<stop  offset="0" style="stop-color:#FCEE21"/>
				<stop  offset="1" style="stop-color:#009245"/>
			</linearGradient>
			<polygon fill="url(#SVGID_5_)" points="627.8,789.8 631.7,789.8 631.9,788.6 634,788.6 634.6,785.1 631.5,785.1 631.8,783.3 
				634.9,783.3 635.2,781.5 632.5,781.5 632.9,779.2 636.2,779.2 636.5,777.1 641.2,777.1 641.4,776.1 646.2,776.1 646.5,774.2 
				641.7,774.2 640,774.8 633.6,774.8 633.8,773.6 621.6,773.6 621.8,772.7 632.4,772.7 632.6,771.6 631.1,771 622.4,771 
				620.6,770.1 607.6,770.1 604.1,771.4 596.5,771.4 595.1,770.7 589.6,770.7 589.3,771.6 591.8,772.9 591.5,773.9 582.8,773.9 
				582.9,773.6 576.6,773.6 577,772.5 572.2,772.5 569.6,773.5 564.3,773.5 563.6,775.2 556.4,775.2 554.9,775.8 550.6,775.8 
				550,777.2 553.9,777.2 553.3,778.6 551.1,779.4 539,779.4 538.4,780.5 540.3,781.5 549.6,781.5 549.2,782.4 541.5,782.4 
				540.9,783.8 543.3,783.8 545.1,784.8 556.5,784.8 559,786.2 562.8,786.2 566.1,788 564.4,792.3 570.8,792.3 570.1,794.4 
				567.4,794.4 566.9,795.8 570.3,797.7 567,797.7 565.1,802.8 568.9,805 568.2,806.8 573.4,809.9 583.3,809.9 586.1,808.7 
				586.7,806.8 589,806.8 590.1,803.2 592.1,802.4 597.7,802.4 605.9,798.9 614.8,798.9 620.1,796.6 620.4,794.9 624.8,794.9 
				625.2,792.8 627.4,791.9 			"/>
			<linearGradient id="SVGID_6_" gradientUnits="userSpaceOnUse" x1="623.5873" y1="607.5232" x2="1101.4929" y2="1085.4287">
				<stop  offset="0" style="stop-color:#FCEE21"/>
				<stop  offset="1" style="stop-color:#009245"/>
			</linearGradient>
			<polygon fill="url(#SVGID_6_)" points="930.1,905.7 925,901.8 912.9,896.6 908.1,895 904.9,892.6 899.1,892.6 899.7,893.8 
				904.5,895.7 911.1,899.2 923.1,907.9 932.3,911.8 934.7,911.2 933,906.8 			"/>
			<linearGradient id="SVGID_7_" gradientUnits="userSpaceOnUse" x1="639.9471" y1="589.7214" x2="1119.4485" y2="1069.2228">
				<stop  offset="0" style="stop-color:#FCEE21"/>
				<stop  offset="1" style="stop-color:#009245"/>
			</linearGradient>
			<polygon fill="url(#SVGID_7_)" points="957.8,893.7 955.6,891.9 950.9,890.6 944.5,897 942.2,897 940.8,898.4 937,897.9 
				936.9,900.5 942.5,904.1 945.6,907.6 956.2,908.4 959.8,907.1 958.9,904.6 960.5,903.1 959.5,900.6 962,900.5 960.7,898.5 
				956.4,896.1 956.2,894.8 			"/>
			<linearGradient id="SVGID_8_" gradientUnits="userSpaceOnUse" x1="629.3492" y1="595.0854" x2="1112.4478" y2="1078.184">
				<stop  offset="0" style="stop-color:#FCEE21"/>
				<stop  offset="1" style="stop-color:#009245"/>
			</linearGradient>
			<polygon fill="url(#SVGID_8_)" points="960,914.8 955.1,914.4 954,913.4 948.9,912.5 946.2,913.2 943.7,913 942.7,912.2 
				937.8,911.8 936.5,913.2 940.1,914.7 948.2,915 954.5,916.1 961.4,916.4 			"/>
			<linearGradient id="SVGID_9_" gradientUnits="userSpaceOnUse" x1="671.0997" y1="556.6343" x2="1152.5673" y2="1038.1018">
				<stop  offset="0" style="stop-color:#FCEE21"/>
				<stop  offset="1" style="stop-color:#009245"/>
			</linearGradient>
			<polygon fill="url(#SVGID_9_)" points="995.1,904.3 1001.5,905.1 1001.8,907.1 1003.8,908.4 1006,907.9 1018.9,911.1 
				1022.1,913.6 1022.6,915.7 1027.8,915.7 1030.9,917.4 1037.3,917.4 1036.1,915.8 1037.5,915.2 1044.4,916.4 1050.7,919.9 
				1059.1,920.9 1057.1,919.4 1049.9,917.3 1047.2,915 1044.2,913.7 1043.9,911.8 1039.7,910.6 1036.2,907.9 1027.5,905.1 
				1013.4,903.8 1009.3,906.8 1007.5,906.8 1001.3,901.9 997.6,901.9 995.5,902.9 			"/>
			<linearGradient id="SVGID_10_" gradientUnits="userSpaceOnUse" x1="653.6724" y1="583.5552" x2="1127.8013" y2="1057.6841">
				<stop  offset="0" style="stop-color:#FCEE21"/>
				<stop  offset="1" style="stop-color:#009245"/>
			</linearGradient>
			<polygon fill="url(#SVGID_10_)" points="978.2,901 978.6,898.7 974.3,899.7 970.7,899.5 966.1,899.4 966.9,902.5 966.4,903.6 
				967.8,906.7 969.6,907.3 970.6,910.2 972.1,911 974.1,910.4 972,906.5 972.9,906.1 974.5,908.4 977.2,909.6 978.7,908.2 
				973,904.5 976.3,904.1 976.4,902.5 973,902.3 969.8,903.1 968.4,901 			"/>
			<linearGradient id="SVGID_11_" gradientUnits="userSpaceOnUse" x1="476.7605" y1="749.5722" x2="958.9204" y2="1231.7321">
				<stop  offset="0" style="stop-color:#FCEE21"/>
				<stop  offset="1" style="stop-color:#009245"/>
			</linearGradient>
			<polygon fill="url(#SVGID_11_)" points="538,792.9 533.1,792.9 530,791.1 519.6,791.1 520.5,789.2 513.2,789.2 511.7,792 
				509.5,792 511.3,788.8 507.4,788.8 502.1,790.7 500.8,792.9 503.9,794.9 524.7,794.9 530,798.2 529.3,799.6 526.6,800.7 
				525.6,802.8 520.3,802.8 519.3,804.9 527,804.9 532.2,808.2 535.8,808.2 536.3,807.1 540.1,807.1 541.1,804.8 536.6,802.1 
				539.1,801.1 543.1,803.5 547.4,801.8 540.4,797.6 541.5,795 			"/>
			<linearGradient id="SVGID_12_" gradientUnits="userSpaceOnUse" x1="490.5279" y1="736.007" x2="978.6235" y2="1224.1025">
				<stop  offset="0" style="stop-color:#FCEE21"/>
				<stop  offset="1" style="stop-color:#009245"/>
			</linearGradient>
			<polygon fill="url(#SVGID_12_)" points="528.1,781.6 531.7,781.6 533.3,778.3 542.4,778.3 547.3,776.5 548.1,774.8 550.6,774.8 
				551.1,773.9 559.2,773.9 560.3,771.4 528.4,771.4 519.1,772.9 518.5,774.1 510.9,774.1 509.5,776.5 521.6,776.5 521.3,777.1 
				515.9,777.1 515.2,778.2 518.6,778.2 517.8,779.7 514.3,779.7 513.5,781.1 511.3,781.1 510.1,783.2 504.7,783.2 504.2,784 
				526.8,784 			"/>
			<linearGradient id="SVGID_13_" gradientUnits="userSpaceOnUse" x1="447.3675" y1="778.3593" x2="929.7204" y2="1260.7122">
				<stop  offset="0" style="stop-color:#FCEE21"/>
				<stop  offset="1" style="stop-color:#009245"/>
			</linearGradient>
			<polygon fill="url(#SVGID_13_)" points="453.4,797.4 457.9,797.4 461.2,796.3 475.7,796.3 477.5,793.5 469.9,793.5 472,790.3 
				467.4,790.3 466.1,792.2 456.2,789.8 448.3,789.8 446.6,792.5 			"/>
			<linearGradient id="SVGID_14_" gradientUnits="userSpaceOnUse" x1="672.8939" y1="550.1949" x2="1159.943" y2="1037.244">
				<stop  offset="0" style="stop-color:#FCEE21"/>
				<stop  offset="1" style="stop-color:#009245"/>
			</linearGradient>
			<polygon fill="url(#SVGID_14_)" points="980.2,849.5 980.4,842.9 975.9,839.7 971.3,839.7 972.8,843.7 966.3,845.6 967.7,848.1 
				957.6,848.8 959.6,851.6 968.8,851.6 			"/>
			<linearGradient id="SVGID_15_" gradientUnits="userSpaceOnUse" x1="534.869" y1="695.9241" x2="1009.6084" y2="1170.6635">
				<stop  offset="0" style="stop-color:#FCEE21"/>
				<stop  offset="1" style="stop-color:#009245"/>
			</linearGradient>
			<polygon fill="url(#SVGID_15_)" points="656.4,822 656.1,826.1 661.7,826.1 667.6,823.2 667.7,821.7 666.4,821 666.6,818.7 
				660.9,815.7 661.1,813.1 655.6,813.1 655.1,818.6 659.1,820.7 			"/>
			<linearGradient id="SVGID_16_" gradientUnits="userSpaceOnUse" x1="527.9929" y1="700.8199" x2="1005.7206" y2="1178.5476">
				<stop  offset="0" style="stop-color:#FCEE21"/>
				<stop  offset="1" style="stop-color:#009245"/>
			</linearGradient>
			<polygon fill="url(#SVGID_16_)" points="653.7,820.1 645.5,820.1 645,824.2 653.2,824.2 			"/>
			<linearGradient id="SVGID_17_" gradientUnits="userSpaceOnUse" x1="526.9525" y1="700.1663" x2="1009.2601" y2="1182.474">
				<stop  offset="0" style="stop-color:#FCEE21"/>
				<stop  offset="1" style="stop-color:#009245"/>
			</linearGradient>
			<polygon fill="url(#SVGID_17_)" points="639.9,803.3 624.5,803.3 623.8,806.8 639.4,806.8 			"/>
			<linearGradient id="SVGID_18_" gradientUnits="userSpaceOnUse" x1="574.7375" y1="654.4255" x2="1056.9362" y2="1136.6243">
				<stop  offset="0" style="stop-color:#FCEE21"/>
				<stop  offset="1" style="stop-color:#009245"/>
			</linearGradient>
			<polygon fill="url(#SVGID_18_)" points="708.7,779.1 693.8,779.1 693.9,782.8 708.9,782.8 			"/>
			<linearGradient id="SVGID_19_" gradientUnits="userSpaceOnUse" x1="600.0358" y1="616.5142" x2="1101.194" y2="1117.6724">
				<stop  offset="0" style="stop-color:#FCEE21"/>
				<stop  offset="1" style="stop-color:#009245"/>
			</linearGradient>
			<polygon fill="url(#SVGID_19_)" points="783.8,785.8 778.5,783.7 761.6,792.5 766.9,794.7 			"/>
			<linearGradient id="SVGID_20_" gradientUnits="userSpaceOnUse" x1="707.6902" y1="552.4509" x2="1170.9763" y2="1015.7371">
				<stop  offset="0" style="stop-color:#FCEE21"/>
				<stop  offset="1" style="stop-color:#009245"/>
			</linearGradient>
			<polygon fill="url(#SVGID_20_)" points="1140.5,995.9 1149.9,1000 1154.6,989.2 1147.1,981.3 			"/>
		</g>
		<g id="map_shadow" opacity="0.1">
			<g>
				<polygon fill="#FFFFFF" points="46.6,1170.2 387.1,1059.8 515.1,701.7 325.5,751.2 				"/>
				<polygon fill="#FFFFFF" points="884.9,701.7 700,752.3 700,1170.2 1012.9,1059.8 				"/>
			</g>
			<g>
				<polygon points="387.1,1059.8 700,1170.2 700,752.3 515.1,701.7 				"/>
				<polygon points="1074.5,751.2 884.9,701.7 1012.9,1059.8 1353.4,1170.2 				"/>
			</g>
		</g>
	</g>
	<g id="loc_pin_1_">
		<polygon id="shadow" opacity="0.4" points="700,752.3 700,871.9 884.9,701.7 		"/>
		<g id="loc_pin">
			<linearGradient id="SVGID_21_" gradientUnits="userSpaceOnUse" x1="700" y1="229.7666" x2="700" y2="871.859">
				<stop  offset="0" style="stop-color:#FFDF40"/>
				<stop  offset="1" style="stop-color:#D74177"/>
			</linearGradient>
			<path fill="url(#SVGID_21_)" d="M700,229.8L700,229.8c-164.8,0-267.7,178.4-185.4,321l185.4,321l185.4-321
				C967.7,408.1,864.8,229.8,700,229.8z M700,525.2c-44.9,0-81.4-36.5-81.4-81.4c0-44.9,36.5-81.4,81.4-81.4s81.4,36.5,81.4,81.4
				C781.4,488.7,744.9,525.2,700,525.2z"/>
			<linearGradient id="SVGID_22_" gradientUnits="userSpaceOnUse" x1="595.594" y1="339.3912" x2="804.4064" y2="548.2036">
				<stop  offset="0" style="stop-color:#000000"/>
				<stop  offset="1" style="stop-color:#000000;stop-opacity:0"/>
			</linearGradient>
			<path opacity="0.3" fill="url(#SVGID_22_)" d="M700,296.1c-81.5,0-147.7,66.3-147.7,147.7c0,81.5,66.3,147.7,147.7,147.7
				s147.7-66.3,147.7-147.7C847.7,362.3,781.5,296.1,700,296.1z M700,525.2c-44.9,0-81.4-36.5-81.4-81.4c0-44.9,36.5-81.4,81.4-81.4
				s81.4,36.5,81.4,81.4C781.4,488.7,744.9,525.2,700,525.2z"/>
		</g>
	</g>
	<linearGradient id="cloud_5_" gradientUnits="userSpaceOnUse" x1="404.0507" y1="485.0001" x2="404.0507" y2="682.5115">
		<stop  offset="0" style="stop-color:#FFFFFF"/>
		<stop  offset="1" style="stop-color:#FFFFFF;stop-opacity:0"/>
	</linearGradient>
	<path id="cloud" fill="url(#cloud_5_)" d="M703,650.8h-69.2c0-51.4-41.6-93-93-93c-31.6,0-59.6,15.8-76.4,39.9
		c-10-11.3-23.1-19.8-38-24.2c-5.1-49.8-47.1-88.6-98.2-88.6c-50.3,0-91.8,37.6-98,86.3c-38.8,5.7-68.6,39.2-68.6,79.6h-56.6
		c-8.7,0-15.8,7.1-15.8,15.8v0c0,8.7,7.1,15.8,15.8,15.8h598c8.7,0,15.8-7.1,15.8-15.8v0C718.9,657.9,711.8,650.8,703,650.8z"/>
</g>
</svg>
